<?xml version="1.0" encoding="utf-8"?>
<!-- Generator: Adobe Illustrator 26.0.0, SVG Export Plug-In . SVG Version: 6.00 Build 0)  -->
<svg version="1.1" id="Layer_1" xmlns="http://www.w3.org/2000/svg" xmlns:xlink="http://www.w3.org/1999/xlink" x="0px" y="0px"
	 viewBox="0 0 198.6 199.1" style="enable-background:new 0 0 198.6 199.1;" xml:space="preserve">
<style type="text/css">
	.st0{fill:none;}
	.st1{fill:#FFFFFF;stroke:#231F20;stroke-miterlimit:10;}
	.st2{fill:#007BFF;}
	.st3{fill:#FFFFFF;}
	.st4{fill:#5D6D7C;}
</style>
<rect x="-5.7" y="-5.5" class="st0" width="210" height="210"/>
<g>
	<g>
		<path class="st2" d="M126.3,126.7H65c-2.1,0-4.2-0.4-6.2-1.2c-2-0.8-3.8-2-5.3-3.5L41,109.3c-3-3.1-4.7-7.2-4.7-11.5V65.1
			c0-2.1,0.4-4.3,1.2-6.2c0.8-2,2-3.8,3.5-5.3L53.6,41c3-3,7.2-4.7,11.5-4.7h61.3v18.1H70.5c-4.3,0-8.4,1.7-11.4,4.8
			c-3,3-4.7,7.2-4.7,11.5v21.7c0,4.3,1.7,8.5,4.7,11.5c3,3.1,7.2,4.8,11.4,4.8h55.8V126.7z"/>
		<path class="st2" d="M72.3,72.5h61.3c4.3,0,8.4,1.7,11.4,4.7l12.5,12.6c3,3.1,4.7,7.2,4.7,11.5V134c0,4.3-1.7,8.5-4.7,11.5
			L145,158.1c-3,3.1-7.2,4.8-11.5,4.8H72.3v-18.1h55.8c4.3,0,8.4-1.7,11.5-4.8c3-3.1,4.7-7.2,4.7-11.5v-21.7c0-4.3-1.7-8.5-4.7-11.5
			c-3-3.1-7.2-4.8-11.5-4.8H72.3V72.5z"/>
	</g>
</g>
</svg>
