<svg width="512" height="512" viewBox="0 0 512 512" fill="none" xmlns="http://www.w3.org/2000/svg">
<path d="M257.727 96.0098C345.297 96.9359 416 168.211 416 256C416 296.813 400.718 334.056 375.565 362.321C372.96 365.25 373.591 369.885 376.986 371.845L445 411.112V416H254.284C254.281 416 254.279 415.997 254.279 415.994C254.279 415.992 254.276 415.989 254.273 415.989C166.703 415.063 96.0005 343.789 96.0005 256C96.0005 215.187 111.282 177.943 136.435 149.678C139.04 146.749 138.409 142.114 135.015 140.154L66.9995 100.886V96H257.717L257.727 96.0098ZM256 142C193.04 142 142 193.04 142 256C142 318.96 193.04 370 256 370C318.961 370 370 318.96 370 256C370 193.04 318.961 142 256 142Z" fill="#2B2B2B"/>
</svg>
